# xmcd CD Database Entry
#
# Track frame offsets:
# 150
# 52067
# 108308
# 162190
# 206613
#
# Disc length: 3491 seconds
#
# Revision: 2
# Processed by: cddbd v1.5.1PL0 Copyright (c) Steve Scherf et al.
# Submitted via: tcd 2.0b
#
DISCID=3f0da105
DTITLE=Art Pepper
DYEAR=1900
DGENRE=
TTITLE0=Valse Triste
TTITLE1=Goodbye
TTITLE2=Blues for Les
TTITLE3=My Friend John
TTITLE4=Blues for Heard
EXTD=
EXTT0=
EXTT1=
EXTT2=
EXTT3=
EXTT4=
PLAYORDER=
